<svg width="94" height="60" fill="none" xmlns="http://www.w3.org/2000/svg"><path fill-rule="evenodd" clip-rule="evenodd" d="M36.229 26.55h5.022v7.069H36.23v-7.07zm28.261 0h7.78l2.657 7.069h-5.023l-.402-1.544H67.26l-.403 1.544h-5.022l2.656-7.07zm4.77 4.596l-.88-3.375-.88 3.375h1.76z" fill="#005BA7"/><path fill-rule="evenodd" clip-rule="evenodd" d="M54.482 47.474h20.61V36.161H19.766v11.313h20.608v-3.992h14.107v3.992zm0-34.099h20.61v11.313H19.766V13.375h20.608v3.993h14.107v-3.993zM38.74 19.271c1.259 0 2.286 1.038 2.286 2.31 0 1.273-1.027 2.31-2.286 2.31-1.259 0-2.286-1.037-2.286-2.31 0-1.272 1.027-2.31 2.286-2.31.03 0 .06 0 .09.002v1.18h.041l.066-.003.064-.002.064-.002.063-.004.064-.005.062-.006.062-.006.062-.007.06-.006.06-.009.06-.008.06-.008.057-.011.058-.01.057-.011.056-.01.055-.014.055-.012.054-.015.053-.015.052-.015.051-.015.051-.014.05-.017.048-.017.048-.017.047-.017.046-.02.045-.018.016-.009c.043.053.083.108.121.165l-.038.017-.047.021-.048.021-.05.02-.05.018-.05.02-.053.018-.053.017-.054.017-.054.017-.056.015-.057.015-.058.015-.058.014-.06.013-.06.013-.06.012-.062.011-.063.01-.063.01-.063.008-.065.008-.065.009-.066.006-.066.006-.067.005-.067.004-.068.004-.069.002-.069.002h-.05v.83h2.194a2.425 2.425 0 0 1 0 .18H38.83v.828h.05l.07.003.068.002.068.004.067.004.067.005.066.006.066.006.065.007.065.008.063.009.063.01.063.01.061.011.061.011.06.013.06.012.058.015.058.015.057.015.056.015.054.017.054.016.053.017.053.02.05.018.05.02.05.019.048.02.047.022.038.017a2.307 2.307 0 0 1-.12.164l-.017-.008-.045-.02-.046-.016-.047-.017-.048-.017-.048-.017-.05-.017-.05-.015-.052-.014-.052-.015-.053-.015-.054-.013-.055-.012-.055-.013-.056-.01-.057-.011-.058-.01-.058-.012-.059-.008-.06-.008-.06-.009-.06-.008-.062-.007-.062-.006-.062-.006-.064-.005-.063-.004-.064-.002-.064-.002-.066-.002h-.042v1.18a2.655 2.655 0 0 1-.178 0v-1.18h-.042l-.065.002-.064.002-.064.002-.064.004-.063.005-.062.006-.062.006-.062.007-.06.008-.06.009-.06.008-.06.009-.058.01-.057.01-.057.011-.056.01-.056.014-.055.012-.053.013-.053.015-.053.015-.05.014-.051.015-.05.017-.048.017-.048.017-.047.017-.046.017-.045.019-.018.008a2.367 2.367 0 0 1-.12-.164l.038-.017.047-.021.048-.021.049-.02.05-.019.051-.018.052-.02.053-.017.054-.016.055-.017.056-.015.057-.015.058-.015.058-.015.06-.012.06-.013.06-.01.062-.011.062-.01.063-.011.064-.009.065-.008.065-.007.065-.006.066-.006.067-.005.068-.004.068-.004.068-.002.07-.002h.049v-.83h-2.194a2.084 2.084 0 0 1 0-.18h2.194v-.828l-.05-.001-.069-.002-.068-.002-.068-.004-.068-.005-.067-.004-.066-.006-.065-.006-.065-.009-.065-.008-.064-.009-.063-.008-.062-.01-.062-.012-.06-.012-.06-.013-.06-.013-.058-.014-.058-.015-.057-.015-.056-.015-.055-.017-.054-.017-.053-.017-.052-.019-.051-.019-.05-.019-.05-.019-.047-.021-.047-.021-.038-.017c.037-.057.077-.112.12-.165l.018.009.045.019.046.019.047.017.047.017.049.017.05.017.05.014.051.015.053.015.053.015.053.015.055.012.056.013.056.01.057.011.057.01.059.012.059.008.06.008.06.009.06.006.062.007.062.006.062.006.063.005.064.004.064.002.064.002.065.002h.042v-1.18l.089-.001z" fill="#E30016"/><path fill-rule="evenodd" clip-rule="evenodd" d="M46.877 0c25.819 0 46.877 13.477 46.877 30S72.696 60 46.877 60C21.058 60 0 46.523 0 30S21.058 0 46.877 0zm0 2.655c25.465 0 46.235 12.284 46.235 27.346 0 15.06-20.77 27.344-46.235 27.344C21.411 57.345.642 45.061.642 30.001c0-15.062 20.77-27.346 46.235-27.346z" fill="#005BA7"/><path fill-rule="evenodd" clip-rule="evenodd" d="M19.941 26.817h3.646l4.753 3.652v-3.652h3.678v6.602H28.34l-4.73-3.625v3.625h-3.669v-6.602z" fill="#005BA7" stroke="#005BA7" stroke-width=".283"/><path fill-rule="evenodd" clip-rule="evenodd" d="M83.67 1.079c.494 0 .977.128 1.45.384.47.258.839.625 1.102 1.103.263.478.395.977.395 1.496 0 .514-.13 1.008-.39 1.481a2.751 2.751 0 0 1-1.09 1.105 2.952 2.952 0 0 1-1.468.394c-.51 0-1-.131-1.467-.394a2.757 2.757 0 0 1-1.093-1.105 3.02 3.02 0 0 1-.391-1.48c0-.52.132-1.02.396-1.497a2.735 2.735 0 0 1 1.105-1.103 3.002 3.002 0 0 1 1.45-.384zm0 .493c-.416 0-.819.108-1.211.323a2.3 2.3 0 0 0-.92.92 2.529 2.529 0 0 0-.333 1.247c0 .43.11.84.327 1.234.218.394.522.702.913.921.39.22.798.331 1.223.331.425 0 .833-.11 1.224-.33.39-.22.694-.528.91-.922a2.53 2.53 0 0 0 .324-1.234c0-.433-.11-.848-.33-1.247a2.285 2.285 0 0 0-.92-.92 2.498 2.498 0 0 0-1.208-.323zM82.374 5.71V2.502h1.09c.374 0 .643.028.81.087.167.06.299.163.399.31a.86.86 0 0 1-.1 1.083.98.98 0 0 1-.66.293.848.848 0 0 1 .27.17c.129.127.285.339.47.637l.387.627h-.626l-.281-.506c-.222-.396-.4-.646-.535-.746-.094-.074-.231-.11-.411-.11h-.3v1.362h-.513zm.512-1.805h.622c.296 0 .5-.046.607-.134a.44.44 0 0 0 .163-.357.438.438 0 0 0-.079-.255.467.467 0 0 0-.216-.167c-.093-.037-.264-.055-.515-.055h-.582v.968zm-26.821 29.7h-7.78l-2.656-7.07h5.023l.644 2.473h1.759l.645-2.472h5.022l-2.657 7.069zm-4.77-4.597l.88 3.375.88-3.375h-1.76z" fill="#005BA7"/></svg>